<svg width="22" height="22" viewBox="0 0 22 22" fill="none" xmlns="http://www.w3.org/2000/svg">
    <path
        d="M19.643 11a.784.784 0 0 1-.68.776l-.106.007H5.045l4.99 4.95a.78.78 0 0 1 .002 1.108.788.788 0 0 1-1.022.078l-.089-.076-6.338-6.288a.789.789 0 0 1-.23-.525v-.06c0-.016.001-.031.003-.046L2.357 11a.784.784 0 0 1 .155-.466l.007-.01a.784.784 0 0 1 .068-.078h.001l6.338-6.29a.788.788 0 0 1 1.111.003.781.781 0 0 1 .074 1.02l-.076.087-4.988 4.95 13.81.001c.434 0 .786.35.786.783Z"
        fill="#06060F" />
</svg>