<svg width="25" height="25" viewBox="0 0 48 48" xmlns="http://www.w3.org/2000/svg">
    <g data-name="Layer 2">
        <path fill="none" data-name="invisible box" d="M0 0h48v48H0z" />
        <g data-name="icons Q2">
            <path
                d="M45.3 22.1C43.2 19.5 35.4 11 24 11a23.4 23.4 0 0 0-3.8.3l3.6 3.7h.2c8.8 0 15.3 6.2 17.7 9a33.7 33.7 0 0 1-4.6 4.3l2.8 2.8a30.1 30.1 0 0 0 5.4-5.2 3 3 0 0 0 0-3.8Z" />
            <path
                d="M29.4 26.6A5.8 5.8 0 0 0 30 24a6 6 0 0 0-6-6 5.8 5.8 0 0 0-2.6.6L9.7 6.9a2 2 0 0 0-2.8 2.8l4.7 4.8a32.1 32.1 0 0 0-8.9 7.6 3 3 0 0 0 0 3.8C4.8 28.5 12.6 37 24 37a23 23 0 0 0 8.5-1.6l5.8 5.7a2 2 0 1 0 2.8-2.8ZM24 33c-8.8 0-15.3-6.2-17.7-9a29.7 29.7 0 0 1 8.3-6.6l4 4A5.8 5.8 0 0 0 18 24a6 6 0 0 0 6 6 5.8 5.8 0 0 0 2.6-.6l2.8 2.8a19.1 19.1 0 0 1-5.4.8Z" />
        </g>
    </g>
</svg>