<svg width="30" height="30" viewBox="0 0 30 31" fill="none" xmlns="http://www.w3.org/2000/svg">
    <g filter="url(#a)">
        <path
            d="M12.157 20.771v-3.066c0-.78.636-1.414 1.424-1.42h2.886c.792 0 1.434.636 1.434 1.42v3.076c0 .662.533 1.204 1.202 1.219h1.924c1.918 0 3.473-1.54 3.473-3.438v0-8.724a2.44 2.44 0 0 0-.962-1.905l-6.58-5.248a3.18 3.18 0 0 0-3.945 0L6.462 7.943A2.42 2.42 0 0 0 5.5 9.847v8.715C5.5 20.46 7.055 22 8.973 22h1.924c.685 0 1.241-.55 1.241-1.229v0"
            stroke="currentColor" stroke-width="1.5" stroke-linecap="round" stroke-linejoin="round" />
    </g>
    <defs>
        <filter id="a" x="-1" y="0" width="32" height="32" filterUnits="userSpaceOnUse"
            color-interpolation-filters="sRGB">
            <feFlood flood-opacity="0" result="BackgroundImageFix" />
            <feColorMatrix in="SourceAlpha" values="0 0 0 0 0 0 0 0 0 0 0 0 0 0 0 0 0 0 127 0"
                result="hardAlpha" />
            <feOffset dy="4" />
            <feGaussianBlur stdDeviation="2" />
            <feComposite in2="hardAlpha" operator="out" />
            <feColorMatrix values="0 0 0 0 0 0 0 0 0 0 0 0 0 0 0 0 0 0 0.25 0" />
            <feBlend in2="BackgroundImageFix" result="effect1_dropShadow_384_12287" />
            <feBlend in="SourceGraphic" in2="effect1_dropShadow_384_12287" result="shape" />
        </filter>
    </defs>
</svg>