<svg width="26" height="30" viewBox="0 0 26 30" fill="none" xmlns="http://www.w3.org/2000/svg"><g filter="url(#a)"><path fill-rule="evenodd" clip-rule="evenodd" d="M18.523 7.396v1.533c1.722.538 2.977 2.097 2.977 3.96v4.936c0 2.306-1.911 4.175-4.268 4.175H8.77c-2.36 0-4.27-1.87-4.27-4.175v-4.937c0-1.862 1.256-3.421 2.977-3.959V7.396C7.487 4.415 9.957 2 12.985 2c3.069 0 5.538 2.415 5.538 5.396Zm-5.518-3.657c2.063 0 3.74 1.64 3.74 3.657v1.318h-7.49V7.376c.01-2.007 1.687-3.637 3.75-3.637Zm.884 12.716a.88.88 0 0 1-.894.874.877.877 0 0 1-.884-.874v-2.206c0-.477.396-.865.884-.865.498 0 .894.388.894.865v2.206Z" fill="#474747"/></g><defs><filter id="a" x="-3" y="0" width="32" height="32" filterUnits="userSpaceOnUse" color-interpolation-filters="sRGB"><feFlood flood-opacity="0" result="BackgroundImageFix"/><feColorMatrix in="SourceAlpha" values="0 0 0 0 0 0 0 0 0 0 0 0 0 0 0 0 0 0 127 0" result="hardAlpha"/><feOffset dy="4"/><feGaussianBlur stdDeviation="2"/><feComposite in2="hardAlpha" operator="out"/><feColorMatrix values="0 0 0 0 0 0 0 0 0 0 0 0 0 0 0 0 0 0 0.25 0"/><feBlend in2="BackgroundImageFix" result="effect1_dropShadow_572_3322"/><feBlend in="SourceGraphic" in2="effect1_dropShadow_572_3322" result="shape"/></filter></defs></svg>