<svg width="19" height="19" viewBox="0 0 19 19" fill="none" xmlns="http://www.w3.org/2000/svg">
    <path opacity=".4"
        d="m10.502 3.119 1.684 3.385a.84.84 0 0 0 .635.453l3.783.551a.848.848 0 0 1 .557.326.82.82 0 0 1 .16.617.842.842 0 0 1-.244.478l-2.741 2.658a.8.8 0 0 0-.243.729l.675 3.736a.844.844 0 0 1-.675.962.884.884 0 0 1-.54-.086l-3.376-1.758a.884.884 0 0 0-.797 0l-3.375 1.758a.865.865 0 0 1-1.159-.338.856.856 0 0 1-.088-.53l.675-3.736a.803.803 0 0 0-.243-.73L2.45 8.938a.82.82 0 0 1-.022-1.16l.022-.022a.815.815 0 0 1 .486-.238l3.783-.552a.843.843 0 0 0 .634-.455L8.976 3.12a.837.837 0 0 1 .77-.464h.101a.844.844 0 0 1 .655.464Z"
        fill="#5DADE2" />
    <path
        d="M9.757 15.075a.928.928 0 0 0-.417.115l-3.36 1.754a.876.876 0 0 1-1.133-.349.837.837 0 0 1-.088-.525l.671-3.729a.835.835 0 0 0-.242-.737L2.446 8.948a.827.827 0 0 1 0-1.18.858.858 0 0 1 .478-.24L6.71 6.97a.82.82 0 0 0 .633-.454L8.99 3.081a.836.836 0 0 1 .773-.425c-.006.225-.006 12.266-.006 12.42Z"
        fill="#5DADE2" />
</svg>